<svg xmlns="http://www.w3.org/2000/svg" width="220" height="69" viewBox="0 0 220 69" fill="none"><path d="M83.6777 33.0964C82.327 34.0474 80.5151 34.5065 78.2749 34.5065C72.6745 34.5065 68.2929 31.0631 68.2929 25.488C68.2929 19.9129 72.6745 16.4695 78.2749 16.4695C80.5151 16.4695 82.2941 16.8958 83.6777 17.8468V21.5198C82.6565 20.5688 80.9105 19.8145 78.9668 19.8145C75.6065 19.8145 73.0698 22.0774 73.0698 25.488C73.0698 28.8986 75.6065 31.1615 78.9668 31.1615C80.9105 31.1615 82.6565 30.3744 83.6777 29.4562V33.0964Z" fill="#436C2B"></path><path d="M103.148 34.0474H98.3049L96.8553 30.3416H90.1677L88.817 34.0474H84.5014L91.3866 16.8302H95.9988L103.115 34.0474H103.148ZM95.7682 27.4557L93.8245 22.4709C93.561 21.8478 93.528 21.487 93.4621 21.0279H93.4292C93.3633 21.487 93.2645 21.8806 93.0668 22.4709L91.2549 27.4557H95.7682Z" fill="#436C2B"></path><path d="M123.672 34.0474H119.356V23.5859L114.843 29.8497H113.492L109.045 23.6843V34.0474H104.729V20.9295C104.729 19.093 104.4 17.814 103.082 17.3877V16.8302H108.88L114.316 24.1434L119.686 16.8302H123.639V34.0474H123.672Z" fill="#436C2B"></path><path d="M134.543 27.5541H131.875V34.0146H127.394V20.8967C127.394 19.0602 127.065 17.7812 125.747 17.3549V16.7974H134.51C138.233 16.7974 140.737 18.9291 140.737 22.1757C140.737 25.4224 138.233 27.5541 134.51 27.5541H134.543ZM133.621 19.9129H131.875V24.6025H133.621C135.235 24.6025 136.19 23.7499 136.19 22.2741C136.19 20.7984 135.235 19.9457 133.621 19.9457V19.9129Z" fill="#436C2B"></path><path d="M151.74 34.5065C146.041 34.5065 141.923 30.7024 141.923 25.4552C141.923 20.2081 146.041 16.4039 151.773 16.4039C157.505 16.4039 161.656 20.1097 161.656 25.4552C161.656 29.8169 158.559 34.5065 151.707 34.5065H151.74ZM151.773 19.8473C148.742 19.8473 146.667 22.2085 146.667 25.4552C146.667 28.7019 148.775 31.0631 151.773 31.0631C154.771 31.0631 156.879 28.7019 156.879 25.4552C156.879 22.2085 154.837 19.8473 151.773 19.8473Z" fill="#436C2B"></path><path d="M77.2537 55.036H69.6107V41.9181C69.6107 40.0816 69.2812 38.8026 67.9635 38.3763V37.8188H77.2207C83.0518 37.8188 85.9509 41.9181 85.9509 46.411C85.9509 50.9039 83.0189 55.036 77.2207 55.036H77.2537ZM75.87 40.9671H74.124V51.7565H75.87C79.9551 51.7565 81.2399 49.0346 81.2399 46.3782C81.2399 43.7218 79.9551 40.9343 75.87 40.9343V40.9671Z" fill="#436C2B"></path><path d="M97.4813 55.4951C91.782 55.4951 87.664 51.6909 87.664 46.4438C87.664 41.1967 91.782 37.3925 97.5142 37.3925C103.246 37.3925 107.397 41.0983 107.397 46.4438C107.397 50.8055 104.301 55.4951 97.4483 55.4951H97.4813ZM97.5472 40.8359C94.5163 40.8359 92.4408 43.1971 92.4408 46.4438C92.4408 49.6905 94.5493 52.0517 97.5472 52.0517C100.545 52.0517 102.653 49.6905 102.653 46.4438C102.653 43.1971 100.611 40.8359 97.5472 40.8359Z" fill="#436C2B"></path><path d="M123.771 55.036H115.666V41.9181C115.666 40.0816 115.337 38.8026 114.019 38.3763V37.8188H123.079C127.065 37.8188 128.482 40.2128 128.482 42.3117C128.482 43.853 127.625 45.132 126.439 45.6895C128.58 46.3126 129.668 47.8212 129.668 49.9856C129.668 52.4124 127.592 55.036 123.771 55.036ZM121.959 40.5736H120.213V44.8041H121.959C123.935 44.8041 124.232 43.3283 124.232 42.6724C124.232 42.0165 123.935 40.5408 121.959 40.5408V40.5736ZM122.354 47.362H120.213V52.2485H122.354C124.792 52.2485 125.154 50.5431 125.154 49.8216C125.154 49.1002 124.792 47.3948 122.354 47.3948V47.362Z" fill="#436C2B"></path><path d="M140.638 55.4951C134.939 55.4951 130.821 51.6909 130.821 46.4438C130.821 41.1967 134.939 37.3925 140.671 37.3925C146.403 37.3925 150.554 41.0983 150.554 46.4438C150.554 50.8055 147.457 55.4951 140.605 55.4951H140.638ZM140.671 40.8359C137.64 40.8359 135.565 43.1971 135.565 46.4438C135.565 49.6905 137.673 52.0517 140.671 52.0517C143.669 52.0517 145.777 49.6905 145.777 46.4438C145.777 43.1971 143.735 40.8359 140.671 40.8359Z" fill="#436C2B"></path><path d="M164.094 50.5103C163.962 53.2323 161.755 55.4295 157.604 55.4295C155.364 55.4295 153.486 54.872 152.465 54.1833V50.1496C153.453 51.199 155.529 52.2157 157.308 52.2157C158.823 52.2157 159.581 51.527 159.647 50.5759V50.4447C159.647 49.5921 158.955 48.9362 157.472 48.1819C156.385 47.5916 155.594 47.1653 154.837 46.7062C153.783 46.0503 152.234 44.968 152.234 42.4428C152.234 42.3117 152.234 42.1149 152.234 41.9837C152.465 38.8354 155.463 37.3925 158.724 37.3925C161.03 37.3925 162.513 38.0156 163.336 38.6059V42.3117C162.447 41.5246 160.997 40.6719 159.021 40.6719C157.472 40.6719 156.78 41.295 156.78 41.9181C156.78 41.9181 156.78 41.9837 156.78 42.0165C156.78 42.8364 157.341 43.4595 159.021 44.3777C160.273 45.0336 160.997 45.4272 161.722 45.9191C162.677 46.5422 164.127 47.7228 164.127 50.1824V50.5103H164.094Z" fill="#436C2B"></path><path d="M178.919 54.3473C181.159 54.9048 183.202 55.2 185.112 55.2656L184.684 58.6762C177.898 57.8563 171.704 56.315 168.64 53.5274C166.73 51.7893 165.478 49.3297 165.478 46.4766C165.478 41.2294 169.596 37.4253 175.328 37.4253C181.06 37.4253 185.211 41.1311 185.211 46.4766C185.211 49.8872 183.267 53.2979 178.919 54.3801V54.3473ZM175.328 40.8359C172.297 40.8359 170.222 43.1971 170.222 46.4438C170.222 49.6905 172.33 52.0517 175.328 52.0517C178.326 52.0517 180.434 49.6905 180.434 46.4438C180.434 43.1971 178.392 40.8359 175.328 40.8359Z" fill="#436C2B"></path><path d="M203.726 48.0507C203.726 52.806 200.695 55.3967 195.72 55.3967C190.746 55.3967 187.682 52.7732 187.682 48.0507V41.8853C187.682 40.0488 187.385 38.7698 186.035 38.3435V37.786H192.129V48.1163C192.129 49.8544 192.953 51.9205 195.72 51.9205C197.895 51.9205 199.344 50.5759 199.344 48.1163V37.786H203.726V48.0507Z" fill="#436C2B"></path><path d="M218.715 55.036H207.382V41.9181C207.382 40.0816 207.053 38.8026 205.735 38.3763V37.8188H218.485V40.9343H211.83V44.8041H218.254V47.8212H211.83V51.9205H218.682V55.036H218.715Z" fill="#436C2B"></path><path d="M75.1782 68.8426L74.4534 67.0716H71.4555L70.7637 68.8426H69.3142L72.378 61.3654H73.6957L76.8913 68.8426H75.1782ZM73.9922 65.9894L73.1027 63.8578C73.1027 63.8578 72.9051 63.3003 72.8721 63.1363C72.8392 63.3003 72.7403 63.661 72.6415 63.8578L71.8179 65.9894H73.9922Z" fill="#B4CC16"></path><path d="M83.3483 66.8421C83.2824 68.3834 81.9976 69.0065 80.7457 69.0065C80.1527 69.0065 79.395 68.9081 78.802 68.4818V66.9733C79.395 67.5964 80.0539 67.8259 80.7128 67.8259C81.3717 67.8259 81.8329 67.5964 81.8988 67.0389C81.8988 67.0061 81.8988 66.9405 81.8988 66.9077C81.8988 66.3502 81.3717 66.0878 80.5151 65.5959C79.6256 65.104 78.7361 64.5793 78.7361 63.3003V63.1691C78.802 61.7261 80.2186 61.2014 81.2069 61.2014C81.8988 61.2014 82.5577 61.3654 82.9859 61.6933V63.1035C82.5247 62.6772 81.9976 62.4476 81.3058 62.4476C80.614 62.4476 80.2516 62.71 80.2186 63.1035C80.2186 63.1035 80.2186 63.1363 80.2186 63.1691C80.2186 63.6282 80.6469 63.9562 81.4046 64.3825C82.36 64.9072 83.3154 65.4319 83.3154 66.7437V66.8749L83.3483 66.8421Z" fill="#B4CC16"></path><path d="M90.5301 66.8421C90.4642 68.3834 89.1794 69.0065 87.9275 69.0065C87.3345 69.0065 86.5768 68.9081 85.9838 68.4818V66.9733C86.5768 67.5964 87.2357 67.8259 87.8946 67.8259C88.5535 67.8259 89.0147 67.5964 89.0806 67.0389C89.0806 67.0061 89.0806 66.9405 89.0806 66.9077C89.0806 66.3502 88.5535 66.0878 87.6969 65.5959C86.8074 65.104 85.9179 64.5793 85.9179 63.3003V63.1691C85.9838 61.7261 87.4004 61.2014 88.3887 61.2014C89.0806 61.2014 89.7394 61.3654 90.1677 61.6933V63.1035C89.7065 62.6772 89.1794 62.4476 88.4876 62.4476C87.7957 62.4476 87.4334 62.71 87.4004 63.1035C87.4004 63.1035 87.4004 63.1363 87.4004 63.1691C87.4004 63.6282 87.8287 63.9562 88.5864 64.3825C89.5418 64.9072 90.4972 65.4319 90.4972 66.7437V66.8749L90.5301 66.8421Z" fill="#B4CC16"></path><path d="M95.2411 68.8426H93.7257V63.1035C93.7257 62.2836 93.6598 61.7589 93.1327 61.5621V61.3654H95.2411V68.8426Z" fill="#B4CC16"></path><path d="M103.049 66.8421C102.983 68.3834 101.698 69.0065 100.446 69.0065C99.8532 69.0065 99.0955 68.9081 98.5025 68.4818V66.9733C99.0955 67.5964 99.7544 67.8259 100.413 67.8259C101.072 67.8259 101.533 67.5964 101.599 67.0389C101.599 67.0061 101.599 66.9405 101.599 66.9077C101.599 66.3502 101.072 66.0878 100.216 65.5959C99.3261 65.104 98.4367 64.5793 98.4367 63.3003V63.1691C98.5025 61.7261 99.9191 61.2014 100.907 61.2014C101.599 61.2014 102.258 61.3654 102.686 61.6933V63.1035C102.225 62.6772 101.698 62.4476 101.006 62.4476C100.314 62.4476 99.9521 62.71 99.9191 63.1035C99.9191 63.1035 99.9191 63.1363 99.9191 63.1691C99.9191 63.6282 100.347 63.9562 101.105 64.3825C102.061 64.9072 103.016 65.4319 103.016 66.7437V66.8749L103.049 66.8421Z" fill="#B4CC16"></path><path d="M110.955 62.5132H108.748V68.8426H107.233V62.5132H105.025V61.3982H110.955V62.5132Z" fill="#B4CC16"></path><path d="M118.269 68.8426H113.558V63.1035C113.558 62.2836 113.492 61.7589 112.965 61.5621V61.3654H118.203V62.5132H115.106V64.5137H118.104V65.6287H115.106V67.7275H118.302V68.8754L118.269 68.8426ZM117.215 60.9718H116.457L115.732 60.2504L115.073 60.9718H114.316L115.403 59.3977H116.095L117.215 60.9718Z" fill="#B4CC16"></path><path d="M128.515 68.8426H127.197L123.046 63.825V68.8426H121.596V63.1035C121.596 62.2836 121.53 61.7589 121.003 61.5621V61.3654H122.98L127.032 66.2846V61.3654H128.482V68.8426H128.515Z" fill="#B4CC16"></path><path d="M138.167 68.4162C137.541 68.8098 136.816 69.0065 135.762 69.0065C133.258 69.0065 131.512 67.3996 131.512 65.104C131.512 62.8083 133.291 61.2014 135.762 61.2014C136.816 61.2014 137.541 61.3982 138.167 61.7917V63.2347C137.442 62.6444 136.751 62.382 135.762 62.382C134.214 62.382 133.16 63.5298 133.16 65.104C133.16 66.6781 134.214 67.8259 135.762 67.8259C136.751 67.8259 137.442 67.5636 138.167 66.9733V68.4162Z" fill="#B4CC16"></path><path d="M143.043 68.8426H141.527V63.1035C141.527 62.2836 141.462 61.7589 140.934 61.5621V61.3654H143.043V68.8426Z" fill="#B4CC16"></path><path d="M151.444 68.8426L150.719 67.0716H147.721L147.029 68.8426H145.58L148.643 61.3654H149.961L153.157 68.8426H151.444ZM150.258 65.9894L149.368 63.8578C149.368 63.8578 149.17 63.3003 149.137 63.1363C149.105 63.3003 149.006 63.661 148.907 63.8578L148.083 65.9894H150.258Z" fill="#B4CC16"></path><path d="M164.391 62.5132H161.491V64.5137H164.292V65.6287H161.491V68.8754H159.976V63.1363C159.976 62.3164 159.91 61.7917 159.383 61.5949V61.3982H164.391V62.546V62.5132Z" fill="#B4CC16"></path><path d="M171.441 68.8426L170.716 67.0716H167.718L167.026 68.8426H165.577L168.64 61.3654H169.958L173.154 68.8426H171.441ZM170.255 65.9894L169.365 63.8578C169.365 63.8578 169.167 63.3003 169.134 63.1363C169.102 63.3003 169.003 63.661 168.904 63.8578L168.08 65.9894H170.255Z" fill="#B4CC16"></path><path d="M181.785 68.8426V63.7594L179.775 66.7109H179.084L177.107 63.7594V68.8426H175.624V63.1035C175.624 62.2836 175.559 61.7589 175.031 61.5621V61.3654H177.239L179.578 64.8088L181.884 61.3654H183.3V68.8426H181.785Z" fill="#B4CC16"></path><path d="M188.571 68.8426H187.056V63.1035C187.056 62.2836 186.99 61.7589 186.463 61.5621V61.3654H188.571V68.8426Z" fill="#B4CC16"></path><path d="M196.873 68.8426H192.36V63.1035C192.36 62.2836 192.294 61.7589 191.767 61.5621V61.3654H193.875V67.6947H196.873V68.8426Z" fill="#B4CC16"></path><path d="M201.255 68.8426H199.739V63.1035C199.739 62.2836 199.674 61.7589 199.146 61.5621V61.3654H201.255V68.8426Z" fill="#B4CC16"></path><path d="M209.689 68.8426L208.964 67.0716H205.966L205.274 68.8426H203.824L206.888 61.3654H208.206L211.402 68.8426H209.689ZM208.503 65.9894L207.613 63.8578C207.613 63.8578 207.415 63.3003 207.382 63.1363C207.35 63.3003 207.251 63.661 207.152 63.8578L206.328 65.9894H208.503Z" fill="#B4CC16"></path><path d="M220 68.8426H218.353L217.365 67.3012C216.409 65.7927 216.08 65.6943 215.586 65.6943H215.355V68.8426H213.839V63.1035C213.839 62.2836 213.774 61.7589 213.246 61.5621V61.3654H216.179C217.727 61.3654 218.682 62.1852 218.682 63.497C218.682 64.2513 218.221 64.9072 217.496 65.2351C217.99 65.5959 218.32 66.1206 218.715 66.7437L218.979 67.17L220 68.8426ZM215.882 62.4804H215.355V64.6448H215.882C216.607 64.6448 217.134 64.2841 217.134 63.5626C217.134 62.8411 216.607 62.4804 215.882 62.4804Z" fill="#B4CC16"></path><path d="M12.6505 24.0778H11.5304C11.5304 24.0778 11.5963 24.0778 11.6292 24.0778H12.6505Z" fill="#A77A2F"></path><path d="M50.8985 43.2299C50.8985 43.2299 43.4202 39.065 35.6454 44.8697C35.6454 44.8697 34.4924 41.2622 32.2851 39.0978C32.2851 39.0978 43.5849 34.3098 50.8985 43.2299Z" fill="#436C2B"></path><path d="M34.3276 4.76177C34.3276 4.76177 37.8526 6.76224 38.808 10.5664C38.808 10.5664 32.1533 12.6325 30.7367 2.30216C30.7367 2.30216 40.0928 -0.74774 40.1587 9.84494C40.1587 9.84494 38.0503 5.31927 34.3276 4.76177Z" fill="url(#paint0_linear_2_3274)"></path><path d="M24.6421 51.5598C19.8982 51.6909 16.3732 48.2475 16.3732 48.2475C18.218 52.4124 24.2468 53.3635 24.2468 53.3635C11.761 56.7741 12.2881 44.8697 12.2881 44.8697C24.9057 43.0987 24.6421 51.527 24.6421 51.527V51.5598Z" fill="url(#paint1_linear_2_3274)"></path><path d="M16.3732 38.6715C10.9045 40.2784 5.7652 37.3269 5.7652 37.3269C9.19138 41.623 16.472 40.9015 16.472 40.9015C2.9979 48.6738 0 34.6705 0 34.6705C14.1 28.8003 16.3732 38.6715 16.3732 38.6715Z" fill="url(#paint2_linear_2_3274)"></path><path d="M11.6292 26.8326C6.8853 26.1767 3.95328 22.1429 3.95328 22.1429C5.10632 26.603 10.9374 28.5707 10.9374 28.5707C-2.07547 29.8825 0.461216 18.1092 0.461216 18.1092C13.3094 18.4699 11.6292 26.7998 11.6292 26.7998V26.8326Z" fill="url(#paint3_linear_2_3274)"></path><path d="M19.2063 10.6976C19.1405 6.56547 22.2043 3.51557 22.2043 3.51557C18.5145 5.08971 17.5921 10.3041 17.5921 10.3041C14.7589 -0.616562 25.2351 0.00653696 25.2351 0.00653696C26.6187 11.0255 19.2063 10.6976 19.2063 10.6976Z" fill="url(#paint4_linear_2_3274)"></path><path d="M15.2531 20.6344C12.0246 17.1582 12.3211 12.239 12.3211 12.239C10.3774 16.3711 13.6059 21.5198 13.6059 21.5198C2.83318 14.4034 12.1893 6.95901 12.1893 6.95901C21.8089 15.2561 15.2531 20.6016 15.2531 20.6016V20.6344Z" fill="url(#paint5_linear_2_3274)"></path><path d="M50.8326 46.3454C50.8326 46.3454 51.2938 56.7413 40.3893 53.757C40.3893 53.757 45.6604 52.9371 47.2746 49.2641C47.2746 49.2641 44.2108 52.2812 40.027 52.1501C40.027 52.1501 39.7963 44.7713 50.8326 46.3126V46.3454Z" fill="url(#paint6_linear_2_3274)"></path><path d="M57.4873 37.2613C57.4873 37.2613 53.0728 39.6881 48.4277 38.2779C48.4277 38.2779 50.5032 29.8825 62.4289 35.064C62.4289 35.064 59.6945 46.9357 48.2959 40.18C48.2959 40.18 54.4894 40.8687 57.4543 37.2613H57.4873Z" fill="url(#paint7_linear_2_3274)"></path><path d="M49.8443 31.8174C49.8443 31.8174 56.1695 27.718 56.1695 22.0446C56.1695 22.0446 53.9293 27.718 48.4606 29.9481C48.4606 29.9481 43.9143 20.536 59.0686 16.1743C59.0686 16.1743 65.7233 29.3906 49.8443 31.7846V31.8174Z" fill="url(#paint8_linear_2_3274)"></path><path d="M33.4382 34.3098C33.4382 34.3098 39.1704 29.8169 38.6763 24.3402C38.6763 24.3402 36.9961 30.0137 31.9557 32.6372C31.9557 32.6372 26.7176 23.9466 40.9823 18.4371C40.9823 18.4371 48.5594 30.604 33.4382 34.3098Z" fill="url(#paint9_linear_2_3274)"></path><path d="M48.0653 9.51699C48.0653 9.51699 50.5361 13.5835 49.383 18.0108C49.383 18.0108 41.3447 16.4039 45.7921 4.95853C45.7921 4.95853 57.1908 7.09019 51.195 18.0436C51.195 18.0436 51.6232 12.2062 48.0653 9.54979V9.51699Z" fill="url(#paint10_linear_2_3274)"></path><path d="M28.233 16.5023C28.233 16.5023 27.1129 21.3887 22.929 23.8811C22.929 23.8811 18.0533 16.7318 29.9131 11.3535C29.9131 11.3535 36.9632 21.3231 24.3127 25.2256C24.3127 25.2256 28.9578 21.0935 28.2659 16.5023H28.233Z" fill="url(#paint11_linear_2_3274)"></path><path d="M23.4561 41.0983C12.0904 29.8497 17.4603 21.5198 17.4603 21.5198C17.4603 30.5056 23.5879 32.8996 27.1129 35.2608C35.3818 40.8031 37.1938 49.1002 37.1938 55.2328C37.1938 55.2328 37.1938 55.2328 37.1938 55.2656C37.1938 55.5935 37.1938 55.9215 37.1938 56.2494C37.2926 63.9234 43.9473 67.0388 43.9473 67.0388C38.1821 68.4162 31.6592 64.0873 31.6592 64.0873C22.4678 68.5802 15.6813 66.4813 15.6813 66.4813C31.6592 64.0873 28.3977 45.9191 23.4561 41.0327V41.0983Z" fill="#436C2B"></path><defs><linearGradient id="paint0_linear_2_3274" x1="110" y1="10.859" x2="110" y2="392.548" gradientUnits="userSpaceOnUse"><stop stop-color="#CAD400"></stop><stop offset="0.51" stop-color="#A2C517"></stop><stop offset="1" stop-color="#5F9230"></stop></linearGradient><linearGradient id="paint1_linear_2_3274" x1="109.731" y1="-315.901" x2="109.731" y2="44.8748" gradientUnits="userSpaceOnUse"><stop stop-color="#CAD400"></stop><stop offset="0.51" stop-color="#A2C517"></stop><stop offset="1" stop-color="#5F9230"></stop></linearGradient><linearGradient id="paint2_linear_2_3274" x1="109.56" y1="-198.298" x2="109.56" y2="124.773" gradientUnits="userSpaceOnUse"><stop stop-color="#CAD400"></stop><stop offset="0.51" stop-color="#A2C517"></stop><stop offset="1" stop-color="#5F9230"></stop></linearGradient><linearGradient id="paint3_linear_2_3274" x1="109.641" y1="-107.973" x2="109.641" y2="211.233" gradientUnits="userSpaceOnUse"><stop stop-color="#CAD400"></stop><stop offset="0.51" stop-color="#A2C517"></stop><stop offset="1" stop-color="#5F9230"></stop></linearGradient><linearGradient id="paint4_linear_2_3274" x1="109.795" y1="8.50323" x2="109.795" y2="323.89" gradientUnits="userSpaceOnUse"><stop stop-color="#CAD400"></stop><stop offset="0.51" stop-color="#A2C517"></stop><stop offset="1" stop-color="#5F9230"></stop></linearGradient><linearGradient id="paint5_linear_2_3274" x1="109.668" y1="-26.7323" x2="109.668" y2="204.999" gradientUnits="userSpaceOnUse"><stop stop-color="#CAD400"></stop><stop offset="0.51" stop-color="#A2C517"></stop><stop offset="1" stop-color="#5F9230"></stop></linearGradient><linearGradient id="paint6_linear_2_3274" x1="109.975" y1="-360.547" x2="109.975" y2="51.2169" gradientUnits="userSpaceOnUse"><stop stop-color="#CAD400"></stop><stop offset="0.51" stop-color="#A2C517"></stop><stop offset="1" stop-color="#5F9230"></stop></linearGradient><linearGradient id="paint7_linear_2_3274" x1="110.256" y1="-245.19" x2="110.256" y2="134.63" gradientUnits="userSpaceOnUse"><stop stop-color="#CAD400"></stop><stop offset="0.51" stop-color="#A2C517"></stop><stop offset="1" stop-color="#5F9230"></stop></linearGradient><linearGradient id="paint8_linear_2_3274" x1="109.83" y1="-65.5345" x2="109.83" y2="150.165" gradientUnits="userSpaceOnUse"><stop stop-color="#CAD400"></stop><stop offset="0.51" stop-color="#A2C517"></stop><stop offset="1" stop-color="#5F9230"></stop></linearGradient><linearGradient id="paint9_linear_2_3274" x1="357.341" y1="-19.7014" x2="287.005" y2="275.623" gradientUnits="userSpaceOnUse"><stop stop-color="#CAD400"></stop><stop offset="0.51" stop-color="#A2C517"></stop><stop offset="1" stop-color="#5F9230"></stop></linearGradient><linearGradient id="paint10_linear_2_3274" x1="109.064" y1="-7.4368" x2="109.064" y2="250.257" gradientUnits="userSpaceOnUse"><stop stop-color="#CAD400"></stop><stop offset="0.51" stop-color="#A2C517"></stop><stop offset="1" stop-color="#5F9230"></stop></linearGradient><linearGradient id="paint11_linear_2_3274" x1="109.518" y1="-43.7205" x2="109.518" y2="199.352" gradientUnits="userSpaceOnUse"><stop stop-color="#CAD400"></stop><stop offset="0.51" stop-color="#A2C517"></stop><stop offset="1" stop-color="#5F9230"></stop></linearGradient></defs></svg>